<?xml version="1.0" standalone="no"?><!DOCTYPE svg PUBLIC "-//W3C//DTD SVG 1.1//EN" "http://www.w3.org/Graphics/SVG/1.1/DTD/svg11.dtd"><svg t="1583996082199" class="icon" viewBox="0 0 1024 1024" version="1.1" xmlns="http://www.w3.org/2000/svg" p-id="2001" xmlns:xlink="http://www.w3.org/1999/xlink" width="200" height="200"><defs><style type="text/css"></style></defs><path d="M448.64 613.290667a32.853333 32.853333 0 0 0 23.296 56.32 33.024 33.024 0 0 0 23.381333-9.642667l124.501334-124.501333a33.28 33.28 0 0 0 0-46.933334l-124.501334-124.373333a32.938667 32.938667 0 0 0-46.677333 0 32.938667 32.938667 0 0 0 0 46.634667l68.138667 68.096-441.002667 0.128a32.981333 32.981333 0 0 0-33.024 32.981333c0 18.261333 14.848 33.109333 33.024 33.109333l441.002667 0.085334-68.138667 68.096z" p-id="2002"></path><path d="M944.384 329.386667a467.882667 467.882667 0 0 0-100.565333-149.205334A467.754667 467.754667 0 0 0 512 42.666667c-74.538667 0-145.834667 16.938667-211.925333 50.432a472.021333 472.021333 0 0 0-161.621334 134.912 32.896 32.896 0 0 0 6.229334 46.208c14.506667 11.093333 35.2 8.234667 46.208-6.229334a406.613333 406.613333 0 0 1 139.093333-115.968A398.634667 398.634667 0 0 1 512 108.672a401.237333 401.237333 0 0 1 285.184 118.058667A402.773333 402.773333 0 0 1 915.370667 512c0 54.442667-10.666667 107.264-31.658667 156.928a401.237333 401.237333 0 0 1-86.442667 128.256A402.773333 402.773333 0 0 1 512 915.370667a398.890667 398.890667 0 0 1-182.229333-43.52 407.466667 407.466667 0 0 1-139.093334-115.925334 32.981333 32.981333 0 0 0-52.394666 39.978667 473.301333 473.301333 0 0 0 161.792 134.912A464.981333 464.981333 0 0 0 512 981.248a467.029333 467.029333 0 0 0 331.818667-137.386667A467.754667 467.754667 0 0 0 981.333333 512c0-63.36-12.373333-124.842667-36.949333-182.613333z" p-id="2003"></path></svg>