<?xml version="1.0" standalone="no"?><!DOCTYPE svg PUBLIC "-//W3C//DTD SVG 1.1//EN" "http://www.w3.org/Graphics/SVG/1.1/DTD/svg11.dtd"><svg t="1588115677693" class="icon" viewBox="0 0 1024 1024" version="1.1" xmlns="http://www.w3.org/2000/svg" p-id="1562" xmlns:xlink="http://www.w3.org/1999/xlink" width="200" height="200"><defs><style type="text/css"></style></defs><path d="M512 714.666667a202.666667 202.666667 0 1 1 0-405.333334 202.666667 202.666667 0 0 1 0 405.333334z m0-21.333334a181.333333 181.333333 0 1 0 0-362.666666 181.333333 181.333333 0 0 0 0 362.666666z" fill="#333549" p-id="1563"></path><path d="M512 693.333333a181.333333 181.333333 0 1 1 0-362.666666 181.333333 181.333333 0 0 1 0 362.666666z" fill="#7DACFF" p-id="1564"></path><path d="M512.021333 960H362.666667l73.216-175.722667 18.730666 6.101334c19.712 6.442667 38.826667 9.621333 57.386667 9.621333 18.56 0 37.674667-3.2 57.386667-9.6l18.730666-6.122667L661.333333 960h-149.354666l0.021333-0.042667 0.021333 0.042667z m18.474667-32A21.12 21.12 0 0 0 533.333333 917.333333v-21.333333a21.333333 21.333333 0 0 0-42.666666 0v21.333333a21.12 21.12 0 0 0 2.837333 10.666667L512 959.936l18.496-31.978667z" fill="#333549" p-id="1565"></path><path d="M629.333333 938.666667L576 810.666667a205.653333 205.653333 0 0 1-64 10.666666 205.653333 205.653333 0 0 1-64-10.666666l-53.333333 128h80.384A42.453333 42.453333 0 0 1 469.333333 917.333333v-21.333333a42.666667 42.666667 0 1 1 85.333334 0v21.333333c0 7.765333-2.069333 15.061333-5.717334 21.333334H629.333333z" fill="#7DACFF" p-id="1566"></path><path d="M427.690667 561.237333L418.688 533.333333h185.813333l-8.042666 27.349334c-13.653333 46.570667-20.458667 88.362667-20.458667 125.333333 0 36.821333 6.741333 76.16 20.288 118.08l6.506667 20.096-20.032 6.698667A221.802667 221.802667 0 0 1 512 842.666667c-23.765333 0-47.36-3.946667-70.762667-11.776l-20.693333-6.912 7.381333-20.522667c13.376-37.269333 20.074667-76.394667 20.074667-117.482667 0-41.258667-6.762667-82.816-20.309333-124.736z" fill="#333549" p-id="1567"></path><path d="M448 554.666667c14.229333 44.010667 21.333333 87.786667 21.333333 131.306666s-7.104 85.077333-21.333333 124.693334c21.248 7.104 42.581333 10.666667 64 10.666666a200.490667 200.490667 0 0 0 64-10.666666c-14.229333-43.946667-21.333333-85.504-21.333333-124.650667s7.104-82.944 21.333333-131.349333h-128z" fill="#B9BECA" p-id="1568"></path><path d="M124.010667 288.021333l74.666666-129.344 115.584 151.253334-14.656 13.184c-15.424 13.866667-27.733333 28.8-37.013333 44.885333a184.405333 184.405333 0 0 0-20.373333 54.506667l-4.053334 19.264-188.8-24.448 74.666667-129.344 0.021333 0.042666h-0.042666z m18.496 32a21.12 21.12 0 0 0 7.808 7.786667l18.474666 10.666667a21.333333 21.333333 0 1 0 21.333334-36.949334l-18.474667-10.666666a21.12 21.12 0 0 0-10.666667-2.858667l-36.906666 0.021333 18.432 32z" fill="#333549" p-id="1569"></path><path d="M83.84 400.277333l137.514667 17.813334a205.653333 205.653333 0 0 1 22.762666-60.757334 205.653333 205.653333 0 0 1 41.237334-50.090666L201.152 197.056 160.981333 266.666667c7.253333 0 14.592 1.834667 21.333334 5.717333l18.474666 10.666667a42.666667 42.666667 0 1 1-42.666666 73.898666l-18.474667-10.666666a42.453333 42.453333 0 0 1-15.637333-15.616L83.84 400.277333z" fill="#7DACFF" p-id="1570"></path><path d="M510.912 414.72l28.650667 6.144-92.906667 160.938667-19.648-20.629334c-33.493333-35.136-66.304-61.909333-98.325333-80.405333-31.872-18.410667-69.333333-32.256-112.405334-41.472l-20.650666-4.416 4.202666-20.693333c4.906667-24.170667 13.312-46.592 25.194667-67.178667 11.882667-20.565333 27.093333-39.04 45.589333-55.402667l16.32-14.442666 14.08 16.64a344.853333 344.853333 0 0 0 91.733334 76.138666c35.712 20.629333 75.093333 35.562667 118.165333 44.8z" fill="#333549" p-id="1571"></path><path d="M506.453333 435.584c-45.226667-9.685333-86.698667-25.386667-124.373333-47.146667a366.186667 366.186667 0 0 1-97.344-80.853333 200.490667 200.490667 0 0 0-41.237333 50.090667 200.490667 200.490667 0 0 0-22.762667 60.778666c45.184 9.642667 84.714667 24.256 118.613333 43.84 33.92 19.584 68.266667 47.637333 103.082667 84.16l64-110.869333z" fill="#B9BECA" p-id="1572"></path><path d="M899.946667 288.021333V288l74.709333 129.344-188.8 24.448-4.074667-19.264c-4.288-20.288-11.093333-38.421333-20.373333-54.506667a184.405333 184.405333 0 0 0-37.013333-44.885333l-14.656-13.162667 115.584-151.274666 74.666666 129.344h-0.042666z m-36.949334-0.021333a21.12 21.12 0 0 0-10.645333 2.858667l-18.474667 10.666666a21.333333 21.333333 0 1 0 21.333334 36.949334l18.474666-10.666667a21.12 21.12 0 0 0 7.808-7.786667l18.453334-32-36.949334-0.021333z" fill="#333549" p-id="1573"></path><path d="M822.826667 197.056l-84.181334 110.186667a205.653333 205.653333 0 0 1 41.237334 50.090666 205.653333 205.653333 0 0 1 22.762666 60.757334l137.536-17.813334-40.192-69.610666a42.453333 42.453333 0 0 1-15.637333 15.616l-18.474667 10.666666a42.666667 42.666667 0 1 1-42.666666-73.898666l18.474666-10.666667a42.453333 42.453333 0 0 1 21.333334-5.717333l-40.170667-69.610667z" fill="#7DACFF" p-id="1574"></path><path d="M596.181333 560.042667l-19.648 21.76-92.928-160.938667 27.712-6.698667c47.146667-11.434667 86.762667-26.453333 118.784-44.949333 31.872-18.410667 62.592-43.925333 92.096-76.629333l14.165334-15.658667 15.808 13.973333c18.496 16.362667 33.706667 34.837333 45.589333 55.424 11.882667 20.565333 20.266667 42.986667 25.173333 67.157334l4.352 21.376-21.44 3.882666c-38.976 7.04-76.202667 20.8-111.786666 41.344-35.733333 20.629333-68.352 47.253333-97.877334 79.957334z" fill="#333549" p-id="1575"></path><path d="M580.352 545.749333c30.997333-34.346667 65.344-62.378667 103.04-84.138666a366.186667 366.186667 0 0 1 118.656-43.861334 200.490667 200.490667 0 0 0-22.762667-60.757333 200.490667 200.490667 0 0 0-41.237333-50.112c-30.954667 34.304-63.381333 61.226667-97.28 80.810667-33.92 19.584-75.392 35.306667-124.416 47.189333l64 110.869333z" fill="#B9BECA" p-id="1576"></path><path d="M512 650.666667a138.666667 138.666667 0 1 0 0-277.333334 138.666667 138.666667 0 0 0 0 277.333334z" fill="#333549" p-id="1577"></path><path d="M512 629.333333a117.333333 117.333333 0 1 1 0-234.666666 117.333333 117.333333 0 0 1 0 234.666666z" fill="#B9BECA" p-id="1578"></path><path d="M512 608a96 96 0 1 0 0-192 96 96 0 0 0 0 192z" fill="#333549" p-id="1579"></path><path d="M512 586.666667a74.666667 74.666667 0 1 1 0-149.333334 74.666667 74.666667 0 0 1 0 149.333334z" fill="#FFEEB4" p-id="1580"></path><path d="M512 1013.333333C235.114667 1013.333333 10.666667 788.885333 10.666667 512S235.114667 10.666667 512 10.666667 1013.333333 235.114667 1013.333333 512 788.885333 1013.333333 512 1013.333333z m0-21.333333c265.088 0 480-214.912 480-480S777.088 32 512 32 32 246.912 32 512 246.912 992 512 992z" fill="#333549" p-id="1581"></path><path d="M512 928C282.24 928 96 741.76 96 512S282.24 96 512 96 928 282.24 928 512 741.76 928 512 928z m0-21.333333c217.962667 0 394.666667-176.704 394.666667-394.666667S729.962667 117.333333 512 117.333333 117.333333 294.037333 117.333333 512 294.037333 906.666667 512 906.666667z" fill="#333549" p-id="1582"></path><path d="M512 992C246.912 992 32 777.088 32 512S246.912 32 512 32 992 246.912 992 512 777.088 992 512 992z m0-64c229.76 0 416-186.24 416-416S741.76 96 512 96 96 282.24 96 512 282.24 928 512 928z" fill="#7DACFF" p-id="1583"></path><path d="M722.965333 919.381333a10.666667 10.666667 0 0 1-9.834666-18.944c5.610667-2.901333 11.178667-5.952 16.661333-9.109333a10.666667 10.666667 0 1 1 10.645333 18.496c-5.76 3.306667-11.584 6.506667-17.493333 9.557333z m48.064-28.8a10.666667 10.666667 0 0 1-12.053333-17.6 439.594667 439.594667 0 0 0 62.656-52.117333 10.666667 10.666667 0 0 1 15.104 15.061333 460.928 460.928 0 0 1-65.706667 54.656z m149.461334-587.370666a10.666667 10.666667 0 1 1-18.986667 9.728 436.501333 436.501333 0 0 0-14.08-25.386667 10.666667 10.666667 0 1 1 18.304-10.965333c5.205333 8.704 10.133333 17.6 14.762667 26.624z m-63.274667-93.205334a10.666667 10.666667 0 1 1-16.042667 14.058667 440.106667 440.106667 0 0 0-32.149333-33.066667 10.666667 10.666667 0 1 1 14.485333-15.658666 461.44 461.44 0 0 1 33.706667 34.666666z m-58.666667-56.170666a10.666667 10.666667 0 0 1-13.354666 16.64 439.168 439.168 0 0 0-15.936-12.16 10.666667 10.666667 0 1 1 12.565333-17.28c5.653333 4.138667 11.242667 8.405333 16.704 12.8zM411.946667 64.277333a10.666667 10.666667 0 0 1 4.629333 20.821334c-5.077333 1.130667-10.133333 2.346667-15.146667 3.669333a10.666667 10.666667 0 0 1-5.397333-20.650667c5.290667-1.365333 10.581333-2.645333 15.914667-3.84z m-53.802667 15.488a10.666667 10.666667 0 0 1 7.146667 20.096 435.84 435.84 0 0 0-99.541334 50.666667 10.666667 10.666667 0 1 1-12.032-17.621333 457.173333 457.173333 0 0 1 104.426667-53.12z m-132.266667 73.728a10.666667 10.666667 0 0 1 13.312 16.661334 439.68 439.68 0 0 0-15.36 12.864 10.666667 10.666667 0 0 1-14.08-16.042667c5.269333-4.629333 10.666667-9.109333 16.128-13.482667zM184.874667 190.506667a10.666667 10.666667 0 1 1 15.210666 14.933333c-5.269333 5.376-10.389333 10.88-15.381333 16.490667a10.666667 10.666667 0 1 1-15.957333-14.165334c5.226667-5.888 10.602667-11.648 16.128-17.28z" fill="#333549" p-id="1584"></path></svg>