<svg xmlns="http://www.w3.org/2000/svg" xmlns:xlink="http://www.w3.org/1999/xlink" width="151" height="89" viewBox="0 0 151 89">
    <defs>
        <path id="a" d="M33.672.37L.818 33.15l78.909 78.735 32.854-32.781"/>
        <path id="c" d="M33.672.37L.818 33.15l78.909 78.735 32.854-32.781"/>
        <path id="e" d="M33.672.37L.818 33.15l78.909 78.735 32.854-32.781"/>
        <path id="g" d="M33.672.37L.818 33.15l78.909 78.735 32.854-32.781"/>
        <path id="i" d="M33.672.37L.818 33.15l78.909 78.735 32.854-32.781"/>
        <path id="k" d="M33.672.37L.818 33.15l78.909 78.735 32.854-32.781"/>
    </defs>
    <g fill="none" fill-rule="evenodd">
        <path fill="#FD0" d="M101.652 75.602c-17.3 17.263-45.35 17.263-62.652 0-17.299-17.263-17.299-45.25 0-62.513"/>
        <g transform="translate(28.062 -30.036)">
            <mask id="b" fill="#fff">
                <use xlink:href="#a"/>
            </mask>
            <path fill="#B9CEC8" d="M73.614 43.207c17.3 17.262 17.3 45.25 0 62.513-17.301 17.263-45.351 17.263-62.652 0-17.3-17.263-17.3-45.25 0-62.513 17.3-17.263 45.35-17.263 62.652 0" mask="url(#b)"/>
        </g>
        <g transform="translate(28.062 -30.036)">
            <mask id="d" fill="#fff">
                <use xlink:href="#c"/>
            </mask>
            <path fill="#B9CEC8" d="M72.225 51.186a5.865 5.865 0 0 1 0 8.308 5.896 5.896 0 0 1-8.326 0 5.865 5.865 0 0 1 0-8.308 5.896 5.896 0 0 1 8.326 0" mask="url(#d)"/>
        </g>
        <g transform="translate(28.062 -30.036)">
            <mask id="f" fill="#fff">
                <use xlink:href="#e"/>
            </mask>
            <path fill="#B9CEC8" d="M73.69 74.541c5.214 5.202 5.203 13.646-.026 18.862-5.228 5.216-13.69 5.228-18.903.026-5.212-5.201-5.2-13.645.027-18.861 5.227-5.216 13.691-5.228 18.903-.027" mask="url(#f)"/>
        </g>
        <g transform="translate(28.062 -30.036)">
            <mask id="h" fill="#fff">
                <use xlink:href="#g"/>
            </mask>
            <path fill="#B9CEC8" d="M28.728 44.47a4.221 4.221 0 0 1 0 5.98 4.242 4.242 0 0 1-5.99 0 4.22 4.22 0 0 1 0-5.98 4.242 4.242 0 0 1 5.99 0" mask="url(#h)"/>
        </g>
        <g transform="translate(28.062 -30.036)">
            <mask id="j" fill="#fff">
                <use xlink:href="#i"/>
            </mask>
            <path fill="#B9CEC8" d="M54.53 47.826c6.167-.14 11.349-4.06 13.396-9.487a44.156 44.156 0 0 0-26.57-8.09c-.518.011-1.03.045-1.545.074a14.675 14.675 0 0 0-.286 3.197c.184 8.084 6.903 14.49 15.005 14.306" mask="url(#j)"/>
        </g>
        <g transform="translate(28.062 -30.036)">
            <mask id="l" fill="#fff">
                <use xlink:href="#k"/>
            </mask>
            <path fill="#B9CEC8" d="M49.233 55.218a2.604 2.604 0 0 1 0 3.69 2.62 2.62 0 0 1-3.699 0 2.606 2.606 0 0 1 0-3.69 2.618 2.618 0 0 1 3.699 0" mask="url(#l)"/>
        </g>
        <g>
            <path fill="#43536D" d="M150.676 40.176c.001-.028.008-.054.008-.08 0-.082-.016-.159-.024-.239a8.752 8.752 0 0 0-12.501-7.417 12.542 12.542 0 0 0-7.548-6.644 12.553 12.553 0 0 0-7.512-.056c-2.693-4.443-7.57-7.439-13.125-7.439-6.63 0-12.298 4.26-14.43 10.167a12.72 12.72 0 0 0-4.595-.864c-6.886 0-12.482 5.445-12.737 12.253-.008.08-.024.157-.024.239 0 .026.008.052.008.08 0 .054-.008.106-.008.161h.024a2.268 2.268 0 0 0 2.246 2.024h67.957a2.268 2.268 0 0 0 2.245-2.024h.024c0-.055-.007-.107-.008-.161"/>
            <path fill="#B9CEC8" d="M72.807 74.108c0-8.241-6.696-14.921-14.953-14.921-6.231 0-11.567 3.804-13.814 9.208a6.466 6.466 0 0 0-4.973-2.326 6.465 6.465 0 0 0-5.55 3.147c-2.482-3.316-6.433-5.472-10.9-5.472-5.275 0-9.84 3.001-12.098 7.38a7.432 7.432 0 0 0-3.061-.661C3.339 70.463 0 73.795 0 77.904h.052c-.017.088-.052.168-.052.26 0 .77.63 1.4 1.4 1.4h69.35a1.4 1.4 0 0 0 1.302-.91h.042c.46-1.434.712-2.96.712-4.546"/>
        </g>
    </g>
</svg>
