<svg xmlns="http://www.w3.org/2000/svg" width="118" height="100" viewBox="0 0 118 100">
    <g fill="none" fill-rule="nonzero">
        <path fill="#FBE0B6" d="M2.272 14.333L30.486.074 54.77 12.346 79.052.074l28.213 14.26v85.21l-28.213-14.26L54.77 97.556 30.485 85.284 2.273 99.544z"/>
        <path fill="#809699" d="M79.226 4.654L54.955 16.926 30.67 4.654 6.388 16.926v76.42L30.67 81.062l24.284 12.284 24.27-12.284 24.284 12.284v-76.42z" opacity=".68"/>
        <path fill="#58C5C7" d="M24.833 3.556l29.304 44.407 32.811-22.815.36-19.05L77.292 2.84 53.604 15.716 32.48 2.654z"/>
        <path fill="#AAD266" d="M3.884 81.025l.545 15.234 25.499-12.691 16.027 7.074 59.389-41-.731-35.198z"/>
        <path fill="#FFF" d="M90.778 89.556h-6.11V1.272h6.11z"/>
        <path fill="#FFF" d="M85.977 90.05l-5.078 3.4L22.268 5.868l5.078-3.4z"/>
        <path fill="#FFF" d="M101.725 11.618l3.398 5.079L3.82 84.46l-3.397-5.08zM113.853 40.786l3.398 5.08-73.226 48.983-3.398-5.08z"/>
        <path fill="#FFF" d="M19.738 72.247h-6.11v-63h6.11z"/>
        <path fill="#51A601" d="M23.792 58.086a2.833 2.833 0 0 0-2.839 2.815 10.842 10.842 0 0 0 2.839 6.642 10.904 10.904 0 0 0 2.826-6.642 2.81 2.81 0 0 0-.828-1.99 2.832 2.832 0 0 0-1.998-.825z"/>
        <path fill="#FFF" d="M25.217 60.901a1.47 1.47 0 0 1-.914 1.37 1.48 1.48 0 0 1-1.617-.333 1.465 1.465 0 0 1-.293-1.619 1.476 1.476 0 0 1 1.399-.875 1.46 1.46 0 0 1 1.425 1.457z"/>
        <path fill="#51A601" d="M60.719 49.889a2.833 2.833 0 0 0-2.839 2.815 10.842 10.842 0 0 0 2.839 6.642 10.904 10.904 0 0 0 2.826-6.642 2.82 2.82 0 0 0-2.826-2.815z"/>
        <path fill="#FFF" d="M62.219 52.704a1.469 1.469 0 0 1-.905 1.367 1.48 1.48 0 0 1-1.613-.316 1.465 1.465 0 0 1-.318-1.607c.232-.55.774-.906 1.373-.901a1.46 1.46 0 0 1 1.463 1.457z"/>
        <path fill="#51A601" d="M17.011 41.037a2.82 2.82 0 0 0-2.826 2.815 10.83 10.83 0 0 0 2.826 6.642 10.83 10.83 0 0 0 2.826-6.642 2.82 2.82 0 0 0-2.826-2.815z"/>
        <path fill="#FFF" d="M18.486 43.852c0 .811-.66 1.469-1.475 1.469a1.472 1.472 0 0 1-1.475-1.47c0-.81.66-1.468 1.475-1.468.815 0 1.475.657 1.475 1.469z"/>
        <path fill="#51A601" d="M77.664 70.247a2.82 2.82 0 0 0-2.826 2.815 10.904 10.904 0 0 0 2.826 6.642 10.83 10.83 0 0 0 2.826-6.642 2.82 2.82 0 0 0-2.826-2.815z"/>
        <path fill="#FFF" d="M78.78 73.247c0 .594-.36 1.13-.911 1.357a1.48 1.48 0 0 1-1.608-.318 1.465 1.465 0 0 1-.32-1.601 1.475 1.475 0 0 1 1.363-.907c.815 0 1.476.658 1.476 1.469z"/>
        <path fill="#51A601" d="M90.73 52.284a2.82 2.82 0 0 0-2.827 2.815 10.904 10.904 0 0 0 2.826 6.63 10.83 10.83 0 0 0 2.826-6.643 2.82 2.82 0 0 0-2.826-2.802z"/>
        <path fill="#FFF" d="M92.254 55.099c0 .805-.651 1.46-1.46 1.468a1.472 1.472 0 0 1-1.49-1.436 1.472 1.472 0 0 1 1.425-1.501c.4-.014.788.135 1.075.412.288.277.45.658.45 1.057z"/>
        <path fill="#51A601" d="M49.439 79.494a2.833 2.833 0 0 0-2.839 2.815 10.842 10.842 0 0 0 2.839 6.642 10.904 10.904 0 0 0 2.863-6.642 2.81 2.81 0 0 0-.84-2.004 2.832 2.832 0 0 0-2.023-.811z"/>
        <path fill="#FFF" d="M50.901 82.309a1.469 1.469 0 0 1-.905 1.367 1.48 1.48 0 0 1-1.613-.316 1.465 1.465 0 0 1-.317-1.607c.231-.55.774-.906 1.373-.901.388 0 .76.153 1.034.427.274.273.428.643.428 1.03z"/>
        <path fill="#51A601" d="M48.335 25.802a2.82 2.82 0 0 0-2.826 2.815 10.94 10.94 0 0 0 2.826 6.642 10.867 10.867 0 0 0 2.84-6.642c0-.748-.3-1.466-.833-1.994a2.832 2.832 0 0 0-2.007-.82z"/>
        <path fill="#FFF" d="M49.823 28.617A1.472 1.472 0 0 1 48.36 30.1a1.472 1.472 0 0 1-1.487-1.457 1.472 1.472 0 0 1 1.462-1.482c.393-.006.771.144 1.05.418.28.274.438.649.438 1.04z"/>
        <path fill="#51A601" d="M85.87 15.272a2.832 2.832 0 0 0-2.006.82 2.81 2.81 0 0 0-.833 1.994 10.842 10.842 0 0 0 2.839 6.605 10.904 10.904 0 0 0 2.826-6.642 2.82 2.82 0 0 0-2.826-2.777z"/>
        <path fill="#FFF" d="M87.333 18.086a1.469 1.469 0 0 1-.905 1.368 1.48 1.48 0 0 1-1.613-.316 1.465 1.465 0 0 1-.318-1.607c.232-.55.774-.906 1.373-.901.388 0 .76.153 1.034.426.275.274.429.644.429 1.03z"/>
        <path fill="#51A601" d="M70.202 27.975a2.82 2.82 0 0 0-2.827 2.815 10.83 10.83 0 0 0 2.827 6.642 10.904 10.904 0 0 0 2.826-6.642 2.82 2.82 0 0 0-2.826-2.815z"/>
        <path fill="#FFF" d="M71.664 30.79a1.47 1.47 0 0 1-.913 1.359 1.48 1.48 0 0 1-1.61-.324 1.465 1.465 0 0 1-.311-1.606 1.475 1.475 0 0 1 1.372-.898c.39 0 .764.155 1.038.431.275.276.428.65.424 1.038z"/>
        <path fill="#51A601" d="M17.011 14.914a2.82 2.82 0 0 0-2.826 2.814 10.83 10.83 0 0 0 2.826 6.642 10.83 10.83 0 0 0 2.826-6.642 2.82 2.82 0 0 0-2.826-2.814z"/>
        <path fill="#FFF" d="M18.486 17.728c0 .812-.66 1.47-1.475 1.47a1.472 1.472 0 0 1-1.475-1.47c0-.811.66-1.469 1.475-1.469.815 0 1.475.658 1.475 1.47z"/>
        <path fill="#303C42" d="M30.485 85.235L54.77 97.519V12.395L30.485.111zM79.14 85.309l28.274 14.382-.074-85.271L78.99 0z" opacity=".3" style="mix-blend-mode:multiply"/>
    </g>
</svg>
