<svg xmlns="http://www.w3.org/2000/svg" width="95" height="95" viewBox="0 0 95 95">
    <g fill="none" fill-rule="nonzero">
        <path fill="#76BC21" d="M.311 64.577a1.244 1.244 0 0 0 .027 1.677l.446.446c.244.243.811.067 1.352-.379 3.11-3.07 14.874-13.589 23.879-11.371l8.275-12.075-9.181.217a15.292 15.292 0 0 0-9.627 4.475L.31 64.577zM30.314 94.648a1.23 1.23 0 0 1-1.663 0l-.446-.46c-.257-.243-.081-.811.365-1.27 3.083-3.192 13.63-14.874 11.385-23.947l12.06-8.275-.202 9.181a15.238 15.238 0 0 1-4.49 9.533L30.315 94.648z"/>
        <path fill="#AAD266" d="M94.553 1.15A1.19 1.19 0 0 0 93.526.121c-6.653-.595-47.554-1.474-72.42 63.549l9.898 9.897C96 48.676 95.148 7.802 94.554 1.15"/>
        <path fill="#76BC21" d="M93.512.122a49.366 49.366 0 0 0-20.579 3.177l18.43 18.443a49.257 49.257 0 0 0 3.19-20.593 1.19 1.19 0 0 0-1.04-1.027M47.96 46.918a6.76 6.76 0 1 1 9.302-.148 6.598 6.598 0 0 1-9.303.148"/>
        <path fill="#6FCEEE" d="M56.302 45.796a5.111 5.111 0 1 1 .122-7.342 5.206 5.206 0 0 1-.122 7.342"/>
        <path fill="#FFF" d="M53.584 40.753a1.609 1.609 0 1 1 0-2.312 1.636 1.636 0 0 1 0 2.312"/>
        <path fill="#076C2B" d="M30.571 82.641l.433-9.073-4.949-4.948-4.949-4.949-9.072.42c-1.041 0-1.352.675-.568 1.351l8.816 8.924 8.87 8.857c.716.716 1.352.46 1.352-.568"/>
        <path fill="#76BC21" d="M42.28 52.394c.541.541 1.177 2.083.623 2.705L12.56 84.074a1.386 1.386 0 0 1-1.96-1.96l29.043-30.342c.554-.554 2.096.082 2.637.622"/>
        <path fill="#FFF" d="M78.044 16.901a10.533 10.533 0 1 0 0 14.874c4.098-4.111 4.098-10.763 0-14.874"/>
        <path fill="#51A601" d="M63.887 17.577a9.465 9.465 0 1 1 13.344 13.427 9.465 9.465 0 0 1-13.344-13.427"/>
        <path fill="#FFF" d="M74.474 33.154l.392-.19-5.61-5.638.635-.08 3.88 3.92a.203.203 0 1 0 .284-.284l-3.664-3.691.622-.068 2.001 1.988a.176.176 0 0 0 .257 0 .19.19 0 0 0 0-.27l-5.233-5.274 7.423-.946-5.273-5.327-1.163 1.135 2.813 2.84-6.76.852-1.353.162 1.839 1.852.5.5a1.906 1.906 0 0 1 2.082.42 1.88 1.88 0 0 1 .393 2.082l5.935 6.017z"/>
        <path fill="#4D4D5A" d="M67.754 27.42a1.487 1.487 0 0 1-2.082 0 1.474 1.474 0 0 1 2.082-2.068 1.487 1.487 0 0 1 0 2.082"/>
    </g>
</svg>
