<svg xmlns="http://www.w3.org/2000/svg" width="74" height="133" viewBox="0 0 74 133">
    <g fill="none" fill-rule="nonzero">
        <path fill="#F79E9C" d="M64.948 85.52a1.148 1.148 0 0 0 1.074 1.211h.452a4.91 4.91 0 0 0 3.88-1.649 8.443 8.443 0 0 0 1.603-5.76 19.17 19.17 0 0 0-.336-3.246c-.466-4.768.814-6.443.93-6.636a3.28 3.28 0 0 0 1.165-2.68 3.078 3.078 0 0 0-1.294-2.126 34.067 34.067 0 0 0-17.586-4.355c-3.233.18-5.56 1.07-6.88 2.577a5.334 5.334 0 0 0-1.176 4.149 1.14 1.14 0 0 0 1.293 1.005"/>
        <path fill="#F26D63" d="M50.608 69.543a1.137 1.137 0 0 1-.763-1.417c.233-.773 1.293-3.311 5.935-3.57a23.55 23.55 0 0 1 12.233 3.016c.6.382.998 1.01 1.086 1.714a2.572 2.572 0 0 1-.88 2.113c-.09.129-.827 1.288-.542 4.239.155.747 1.15 5.9-2.34 7.46a1.22 1.22 0 0 1-.466.103 1.164 1.164 0 0 1-1.048-.67L50.608 69.543z"/>
        <path fill="#C18E8E" d="M17.634 118.827l-1.293 5.154 1.293 5.154 6.465 1.288h3.88l2.586-3.865zM44.35 126.132c.413 1.18.918 2.327 1.512 3.428l5.069 1.288 3.556-.103 2.91-1.507.646-4.716-.646-5.592-13.048 7.202z"/>
        <path fill="#F79E9C" d="M9.06 85.52a1.148 1.148 0 0 1-1.073 1.211h-.453a4.91 4.91 0 0 1-3.879-1.649 8.379 8.379 0 0 1-1.603-5.76c.012-1.09.125-2.176.336-3.246.453-4.768-.815-6.443-.931-6.636a3.28 3.28 0 0 1-1.164-2.667 3.078 3.078 0 0 1 1.293-2.126 34.067 34.067 0 0 1 17.586-4.355c3.233.18 5.56 1.07 6.88 2.577a5.334 5.334 0 0 1 1.176 4.149 1.154 1.154 0 0 1-1.293 1.005"/>
        <path fill="#F26D63" d="M10.16 82.557c-.19.406-.598.667-1.048.67a1.22 1.22 0 0 1-.465-.103c-3.492-1.56-2.51-6.713-2.341-7.46.285-2.99-.453-4.11-.543-4.24a2.573 2.573 0 0 1-.892-2.113 2.422 2.422 0 0 1 1.099-1.713 23.55 23.55 0 0 1 12.233-3.015c4.577.257 5.702 2.796 5.935 3.569a1.13 1.13 0 0 1-.763 1.417L10.159 82.557z"/>
        <path fill="#BC7D7D" d="M23.569 132.047a20.32 20.32 0 0 1-3.88-.4 5.305 5.305 0 0 1-3.814-2.255 7.86 7.86 0 0 1-.737-5.63 12.98 12.98 0 0 0 0-4.497 1.159 1.159 0 1 1 2.276-.438c.31 1.769.31 3.578 0 5.347v.103a5.548 5.548 0 0 0 .414 3.866 3.119 3.119 0 0 0 2.275 1.288h.091c1.41.31 5.534.825 7.513-.58a2.575 2.575 0 0 0 1.099-1.933v-.128c.042-.202.098-.4.168-.593a1.152 1.152 0 0 1 1.413-.617c.56.186.889.764.76 1.338 0 .155-.091.271-.104.335A4.854 4.854 0 0 1 29 130.72a9.518 9.518 0 0 1-5.431 1.328zM50.634 132.047a9.519 9.519 0 0 1-5.38-1.289 4.854 4.854 0 0 1-2.043-3.453 2.57 2.57 0 0 0-.116-.387 1.146 1.146 0 0 1 .759-1.338c.56-.186 1.17.08 1.413.617.13.36.181.605.194.631v.13a2.575 2.575 0 0 0 1.1 1.932c1.978 1.404 6.09.889 7.512.58h.078a3.093 3.093 0 0 0 2.276-1.289c.6-1.197.746-2.57.414-3.865v-.103a11.761 11.761 0 0 1 .206-5.67 1.142 1.142 0 0 1 1.926-.425c.275.3.37.722.247 1.108a9.578 9.578 0 0 0-.13 4.587 7.796 7.796 0 0 1-.737 5.63 5.305 5.305 0 0 1-3.75 2.269 20.321 20.321 0 0 1-3.97.335z"/>
        <path fill="#D38989" d="M37.134 128.13c-13.02.005-24.76-7.805-29.745-19.789-4.986-11.983-2.235-25.779 6.969-34.953 9.204-9.175 23.048-11.921 35.076-6.958 12.029 4.963 19.872 16.658 19.872 29.63-.014 17.7-14.408 32.048-32.172 32.07z"/>
        <path fill="#F79E9C" d="M37.237 118.827c-11.158 0-21.217-6.699-25.485-16.972a27.41 27.41 0 0 1 5.99-29.953c7.895-7.858 19.762-10.203 30.068-5.941C58.116 70.223 64.83 80.25 64.82 91.37c-.036 15.16-12.368 27.436-27.582 27.457z"/>
        <path fill="#D38989" d="M37.134 114.24c-8.806 0-15.957-6.313-15.957-14.083 0-7.77 7.15-14.083 15.957-14.083 8.806 0 15.944 6.314 15.944 14.083 0 7.77-7.151 14.083-15.944 14.083zm0-25.885c-7.54 0-13.668 5.295-13.668 11.802s6.129 11.802 13.668 11.802c7.538 0 13.655-5.295 13.655-11.802s-6.13-11.802-13.655-11.802z"/>
        <path fill="#F26D63" d="M30.616 104.048a3.608 3.608 0 0 1-3.343-2.213 3.585 3.585 0 0 1 .78-3.923 3.617 3.617 0 0 1 3.937-.777 3.595 3.595 0 0 1 2.221 3.331 3.601 3.601 0 0 1-3.595 3.582zm0-4.896a1.29 1.29 0 0 0-1.293 1.289 1.29 1.29 0 0 0 1.293 1.288 1.29 1.29 0 0 0 1.293-1.288 1.29 1.29 0 0 0-1.293-1.289zM43.638 104.048a3.608 3.608 0 0 1-3.334-2.222 3.585 3.585 0 0 1 .787-3.919 3.617 3.617 0 0 1 3.937-.771 3.595 3.595 0 0 1 2.218 3.33 3.601 3.601 0 0 1-3.608 3.582zm0-4.896a1.29 1.29 0 0 0-1.293 1.289 1.29 1.29 0 0 0 1.293 1.288 1.29 1.29 0 0 0 1.293-1.288 1.29 1.29 0 0 0-1.293-1.289z"/>
        <path fill="#5A686D" d="M29.233 83.69c.016.921-.529 1.76-1.378 2.123a2.282 2.282 0 0 1-2.493-.467 2.262 2.262 0 0 1-.511-2.475 2.276 2.276 0 0 1 2.106-1.41 2.259 2.259 0 0 1 2.276 2.23zM49.728 83.69c.016.921-.528 1.76-1.377 2.123a2.282 2.282 0 0 1-2.493-.467 2.262 2.262 0 0 1-.511-2.475 2.276 2.276 0 0 1 2.106-1.41 2.259 2.259 0 0 1 2.275 2.23z"/>
        <ellipse cx="32.44" cy="47.472" fill="#F4D227" rx="13.203" ry="13.155"/>
        <path fill="#D1B333" d="M32.44 58.707a11.276 11.276 0 0 1-10.42-6.938 11.206 11.206 0 0 1 2.451-12.246 11.306 11.306 0 0 1 12.293-2.428 11.235 11.235 0 0 1 6.952 10.39C43.7 53.682 38.659 58.7 32.44 58.707zm0-20.525c-5.157 0-9.337 4.165-9.337 9.303 0 5.138 4.18 9.303 9.337 9.303 5.156 0 9.336-4.165 9.336-9.303 0-5.138-4.18-9.303-9.336-9.303z"/>
        <path fill="#BFA63A" d="M23.116 38.182c5.153-5.134 13.507-5.134 18.66 0 5.153 5.134 5.153 13.458 0 18.593" opacity=".8" style="mix-blend-mode:overlay"/>
        <ellipse cx="49.793" cy="24.602" fill="#F4D227" rx="9.97" ry="9.934"/>
        <path fill="#D1B333" d="M49.793 33.093a8.522 8.522 0 0 1-7.883-5.236 8.469 8.469 0 0 1 1.845-9.26 8.544 8.544 0 0 1 9.292-1.837 8.49 8.49 0 0 1 5.255 7.855c-.007 4.679-3.813 8.47-8.509 8.478zm0-15.462a7.06 7.06 0 0 0-6.532 4.334 7.017 7.017 0 0 0 1.522 7.671 7.079 7.079 0 0 0 7.696 1.53 7.035 7.035 0 0 0 4.362-6.5 7.022 7.022 0 0 0-2.045-5.003 7.073 7.073 0 0 0-5.003-2.083v.051z"/>
        <path fill="#BFA63A" d="M42.746 17.58c3.895-3.879 10.209-3.876 14.101.006a9.91 9.91 0 0 1-.006 14.05" opacity=".8" style="mix-blend-mode:overlay"/>
        <ellipse cx="30.72" cy="8.496" fill="#F4D227" rx="8.25" ry="8.22"/>
        <path fill="#D1B333" d="M30.72 15.518c-3.89-.014-7.034-3.167-7.022-7.043.012-3.877 3.174-7.01 7.065-7.001 3.89.01 7.037 3.158 7.03 7.035a7.01 7.01 0 0 1-2.078 4.966 7.06 7.06 0 0 1-4.995 2.043zm0-12.82a5.833 5.833 0 0 0-5.425 3.551 5.796 5.796 0 0 0 1.231 6.35 5.847 5.847 0 0 0 6.362 1.283A5.81 5.81 0 0 0 36.5 8.51c0-3.19-2.58-5.783-5.78-5.811z"/>
        <path fill="#BFA63A" d="M24.862 2.698a8.258 8.258 0 0 1 11.39.247 8.186 8.186 0 0 1 .248 11.349" opacity=".8" style="mix-blend-mode:overlay"/>
    </g>
</svg>
