<?xml version="1.0" encoding="utf-8"?>
<!-- Generator: Adobe Illustrator 22.0.0, SVG Export Plug-In . SVG Version: 6.00 Build 0)  -->
<svg version="1.1" id="Layer_1" xmlns="http://www.w3.org/2000/svg" xmlns:xlink="http://www.w3.org/1999/xlink" x="0px" y="0px"
	 viewBox="0 0 48 48" style="enable-background:new 0 0 48 48;" xml:space="preserve">
<style type="text/css">
	.st0{display:none;fill:#DCAFB8;}
	.st1{fill:#DCAFB8;}
</style>
<path class="st0" d="M42.3,6H5.8c-2.6,0-4.7,2.1-4.7,4.6v26c0,2.5,2.1,4.6,4.7,4.6h36.5c2.6,0,4.7-2.1,4.7-4.6v-26
	C47,8.1,44.9,6,42.3,6z M24.2,24.5L8.6,9.3h30.8L24.2,24.5z M16.6,21.9L4.5,33.8V10.6c0-0.1,0-0.3,0.1-0.4L16.6,21.9z M5.3,37.8
	L19,24.2l5.2,5.1l4.9-5l13.6,13.4c-0.1,0.1-0.3,0.1-0.5,0.1H5.8C5.6,37.9,5.5,37.8,5.3,37.8z M31.6,21.9L43.4,10
	c0.1,0.2,0.2,0.4,0.2,0.6v23.2L31.6,21.9z"/>
<path class="st1" d="M24.1,1C14.6,1,6.9,8.7,6.9,18.2c0,11,12.4,24.8,14.3,26.9c0.8,0.9,1.5,1.7,2.9,1.7s2.1-0.9,2.9-1.7
	c1.9-2.1,14.3-15.9,14.3-26.9C41.3,8.7,33.6,1,24.1,1z M24.1,29.6c-6.3,0-11.5-5.1-11.5-11.5S17.8,6.7,24.1,6.7s11.5,5.1,11.5,11.5
	S30.4,29.6,24.1,29.6z M24.1,12.5c-3.2,0-5.7,2.6-5.7,5.7s2.6,5.7,5.7,5.7s5.7-2.6,5.7-5.7S27.3,12.5,24.1,12.5z"/>
</svg>
