<?xml version="1.0" encoding="utf-8"?>
<!-- Generator: Adobe Illustrator 22.0.0, SVG Export Plug-In . SVG Version: 6.00 Build 0)  -->
<svg version="1.1" id="Layer_1" xmlns="http://www.w3.org/2000/svg" xmlns:xlink="http://www.w3.org/1999/xlink" x="0px" y="0px"
	 viewBox="0 0 48 48" style="enable-background:new 0 0 48 48;" xml:space="preserve">
<style type="text/css">
	.st0{display:none;fill:#B5CD6F;}
	.st1{fill:#85868A;}
	.st2{fill:#DCAFB8;}
</style>
<path class="st0" d="M42.3,6H5.8c-2.6,0-4.7,2.1-4.7,4.6v26c0,2.5,2.1,4.6,4.7,4.6h36.5c2.6,0,4.7-2.1,4.7-4.6v-26
	C47,8.1,44.9,6,42.3,6z M24.2,24.5L8.6,9.3h30.8L24.2,24.5z M16.6,21.9L4.5,33.8V10.6c0-0.1,0-0.3,0.1-0.4L16.6,21.9z M5.3,37.8
	L19,24.2l5.2,5.1l4.9-5l13.6,13.4c-0.1,0.1-0.3,0.1-0.5,0.1H5.8C5.6,37.9,5.5,37.8,5.3,37.8z M31.6,21.9L43.4,10
	c0.1,0.2,0.2,0.4,0.2,0.6v23.2L31.6,21.9z"/>
<path class="st0" d="M24.1,1C14.6,1,6.9,8.7,6.9,18.2c0,11,12.4,24.8,14.3,26.9c0.8,0.9,1.5,1.7,2.9,1.7s2.1-0.9,2.9-1.7
	c1.9-2.1,14.3-15.9,14.3-26.9C41.3,8.7,33.6,1,24.1,1z M24.1,29.6c-6.3,0-11.5-5.1-11.5-11.5S17.8,6.7,24.1,6.7s11.5,5.1,11.5,11.5
	S30.4,29.6,24.1,29.6z M24.1,12.5c-3.2,0-5.7,2.6-5.7,5.7s2.6,5.7,5.7,5.7s5.7-2.6,5.7-5.7S27.3,12.5,24.1,12.5z"/>
<g>
	<path class="st1" d="M47,16.5l0-0.6c0-0.1,0-0.1,0-0.2c0-0.1,0-0.2,0-0.3v0l0,0C46.6,9.7,36.5,5.2,24,5.2c-12.4,0-22.6,4.5-23,10.1
		h0v0c0,0.1,0,0.2,0,0.3c0,0.1,0,0.1,0,0.2l0,0.6c0,0,0,0,0,0.1c0,0,0,0,0,0l0,0.2h0c0.3,2.1,3.6,3.7,7.7,3.7c4.3,0,7.7-1.8,7.7-4
		c0.2-1.3-0.2-3.8-0.3-4.7c2.4-0.4,5.1-0.6,7.8-0.6c2.8,0,5.4,0.2,7.9,0.5c-0.1,0.8-0.5,3.5-0.4,4.8c0,2.2,3.5,4,7.7,4
		c4.1,0,7.4-1.6,7.7-3.7h0l0-0.2C47,16.6,47,16.6,47,16.5C47,16.5,47,16.5,47,16.5z"/>
	<path class="st1" d="M39.1,23c-4.9-0.6-8.8-5.1-8.8-5.1h-0.4v-4.8h-1.8v4.8H24H20v-4.8h-1.8v4.8h-0.4c0,0-3.9,4.4-8.8,5.1L4.1,37.5
		c0,0-2.2,5.5,8,5.5C22.3,43,24,43,24,43s1.7,0,11.9,0c10.2,0,8-5.5,8-5.5L39.1,23z M23.9,38.5c-4.9,0-8.8-3.9-8.8-8.8
		s3.9-8.8,8.8-8.8c4.9,0,8.8,3.9,8.8,8.8C32.7,34.6,28.8,38.5,23.9,38.5z"/>
	<path class="st1" d="M29.1,24.5c-0.7,0-1.3,0.6-1.3,1.3c0,0.7,0.6,1.3,1.3,1.3c0.7,0,1.3-0.6,1.3-1.3
		C30.4,25.1,29.8,24.5,29.1,24.5z"/>
</g>
<circle class="st2" cx="23.9" cy="29.9" r="9.3"/>
</svg>
