<?xml version="1.0" standalone="no"?><!DOCTYPE svg PUBLIC "-//W3C//DTD SVG 1.1//EN" "http://www.w3.org/Graphics/SVG/1.1/DTD/svg11.dtd"><svg t="1588296118675" class="icon" viewBox="0 0 1024 1024" version="1.1" xmlns="http://www.w3.org/2000/svg" p-id="10795" xmlns:xlink="http://www.w3.org/1999/xlink" width="200" height="200"><defs><style type="text/css"></style></defs><path d="M992 512c0-264.672-215.328-480-480-480S32 247.328 32 512s215.328 480 480 480 480-215.328 480-480zM512 928C282.624 928 96 741.376 96 512S282.624 96 512 96s416 186.624 416 416-186.624 416-416 416z" fill="#5465CF" p-id="10796"></path><path d="M512 224h-96a32 32 0 0 0-32 32v512a32 32 0 0 0 64 0v-160h64c105.888 0 192-86.112 192-192s-86.112-192-192-192z m0 320h-64V288h64c70.592 0 128 57.408 128 128s-57.408 128-128 128z" fill="#5465CF" p-id="10797"></path></svg>