<?xml version="1.0" standalone="no"?><!DOCTYPE svg PUBLIC "-//W3C//DTD SVG 1.1//EN" "http://www.w3.org/Graphics/SVG/1.1/DTD/svg11.dtd"><svg t="1588115802826" class="icon" viewBox="0 0 1024 1024" version="1.1" xmlns="http://www.w3.org/2000/svg" p-id="3115" xmlns:xlink="http://www.w3.org/1999/xlink" width="200" height="200"><defs><style type="text/css"></style></defs><path d="M247.465 848.439V466.401c74.591-11.853 131.849-76.432 131.849-154.307 0-86.259-70.175-156.434-156.434-156.434S66.446 225.835 66.446 312.094c0 79.43 59.551 145.072 136.323 154.992v381.353c0 12.352 10.006 22.348 22.348 22.348s22.348-9.996 22.348-22.348zM222.88 423.832c-61.609 0-111.739-50.13-111.739-111.739s50.13-111.739 111.739-111.739 111.739 50.13 111.739 111.739-50.13 111.739-111.739 111.739zM653.314 810.64v-21.105c124.819 7.045 230.192 10.56 307.041 12.324v-44.704c-113.188-2.594-288.89-9.035-496.647-25.016-18.583-1.419-25.981-11.414-26.582-12.702l-4.864-29.319c3.935 0.802 8.013 1.464 12.382 1.799 219.219 16.869 402.792 23.158 515.71 25.508v-44.727c-68.794-1.44-163.701-4.339-277.21-10.233-10.788-19.449-39.123-65.408-76.206-86.019-38.196-21.247-148.382-23.142-192.015-23.039 11.418-41.809 66.262-85.54 134.16-103.66 155.352-41.495 310.827-46.796 411.272-44.288v-45.004c-92.577-2.365-229.741 1.956-373.695 34.096 28.4-47.237 72.926-109.709 115.736-131.727 67.889-34.92 211.23-39.484 257.959-40.044v-44.768c-49.251 0.436-200.982 5.247-278.386 45.071-41.862 21.525-80.942 68.724-109.963 111.357h-82.462c-11.462 0-20.839 9.377-20.839 20.839v3.017c0 11.462 9.377 20.839 20.839 20.839h54.293c-7.554 12.925-13.332 23.623-16.995 30.62-82.739 25.534-163.992 90.348-158.406 168.152l24.716 149.538c3.957 19.88 23.994 41.093 55.444 47.509v35.683c0 33.172 26.985 60.147 60.147 60.147h84.426c33.17 0.002 60.145-26.972 60.145-60.144zM423.573 636.245c-0.074-0.367-0.323-0.636-0.413-0.994l-6.163-37.14c61.256-0.007 145.968 5.044 168.248 17.402 15.944 8.858 31.341 27.038 43.19 43.955a9433.44 9433.44 0 0 1-180.375-12.114c-17.94-1.376-23.897-9.233-24.487-11.109zM608.618 810.64c0 8.38-7.071 15.451-15.451 15.451h-84.426c-8.38 0-15.451-7.071-15.451-15.451v-31.507a9492.799 9492.799 0 0 0 115.329 7.761v23.746z" fill="#333333" p-id="3116"></path><path d="M826.268 601.871v1.487c0 11.882 9.723 21.604 21.604 21.604h112.482v-44.695H847.873c-11.882-0.001-21.605 9.72-21.605 21.604zM269.675 256.466c-7.565-7.574-17.807-11.415-30.443-11.415H178.1v134.086h25.953V328.19h35.179c13.99 0 24.896-4.71 32.415-13.999 6.248-7.679 9.421-17.289 9.421-28.553 0-11.788-3.832-21.602-11.393-29.172z m-65.622 12.363h30.092c6.587 0 11.658 1.273 15.074 3.781 3.598 2.691 5.362 7.016 5.362 13.203 0 6.973-1.738 11.732-5.31 14.548-3.391 2.69-8.713 4.05-15.832 4.05h-29.386v-35.582z" fill="#333333" p-id="3117"></path><path d="M334.619 870.786H111.142c-12.341 0-22.348-9.995-22.348-22.348S98.8 826.09 111.142 826.09h223.477c12.341 0 22.348 9.995 22.348 22.348s-10.007 22.348-22.348 22.348z" fill="#333333" p-id="3118"></path></svg>