<?xml version="1.0" standalone="no"?><!DOCTYPE svg PUBLIC "-//W3C//DTD SVG 1.1//EN" "http://www.w3.org/Graphics/SVG/1.1/DTD/svg11.dtd"><svg t="1588230133606" class="icon" viewBox="0 0 3032 1024" version="1.1" xmlns="http://www.w3.org/2000/svg" p-id="3016" xmlns:xlink="http://www.w3.org/1999/xlink" width="592.1875" height="200"><defs><style type="text/css"></style></defs><path d="M281.6 273.92h-64c-1.28-10.24-3.52-21.44-6.72-34.24L186.56 145.6c-3.2-12.48-5.76-27.2-8.96-48.32-1.92 13.12-5.76 33.28-9.6 48.32L144.32 240c-4.16 16-6.08 25.28-7.04 33.92H73.6c-1.6-9.28-3.2-16-8-34.56l-51.2-192C9.92 31.04 5.44 16.32 2.24 7.68H75.2c0.32 11.52 1.92 21.76 4.48 35.2l20.48 97.28c0.96 4.8 3.2 19.84 7.04 45.12 4.8-26.88 7.04-38.4 8.96-45.12l25.6-99.2c3.84-14.4 5.76-24.32 7.04-33.28h56.96c1.28 8.32 3.2 17.28 7.36 32.32l25.92 98.56c2.56 10.24 4.8 20.8 8.96 46.72 0.64-6.08 0.64-6.08 2.56-19.52 0.96-7.04 3.2-22.4 4.48-27.52L275.2 42.88c3.2-14.72 4.48-24 4.8-35.2h72.64c-3.2 8.64-7.68 23.68-11.84 39.68l-51.2 191.68c-4.16 15.04-7.04 27.2-8 34.88z m294.08-57.6v59.84c-13.76-1.6-25.28-2.24-52.8-2.24h-100.8c-24.32 0-33.28 0.32-47.04 0.96 1.92-12.8 2.56-24.64 2.56-46.72V53.44c0-19.84-0.64-31.04-2.56-46.72 13.12 0.64 22.08 0.96 47.04 0.96h102.08c21.76 0 32.64-0.64 47.68-2.24v59.84c-14.72-1.6-26.24-2.24-47.68-2.24h-83.2v47.04h69.12c21.12 0 28.8-0.32 48-2.24v59.2c-15.04-1.6-25.92-2.24-48-2.24h-69.12v53.76h82.56c24.32 0 38.4-0.64 52.16-2.24z m177.28 57.6H655.68c-22.08 0-35.2 0.32-47.36 0.96 1.92-11.2 2.56-25.28 2.56-46.72V59.2c0-22.4-0.64-36.16-2.56-51.52h69.76c-2.24 16.64-2.56 25.6-2.56 50.56v158.72h77.44c27.2 0 38.08-0.32 53.12-2.24v61.44c-11.84-1.6-27.52-2.24-53.12-2.24z m311.68-186.24l-65.92 12.8c-6.08-29.12-23.04-43.52-50.56-43.52-39.04 0-61.76 30.72-61.76 83.52 0 52.16 23.68 83.84 63.36 83.84 17.6 0 32.64-7.36 41.92-20.16 5.44-7.68 7.68-14.08 9.6-27.52l66.56 9.92c-6.08 27.2-13.12 42.88-26.56 58.56-19.84 22.72-50.88 34.88-89.6 34.88-39.04 0-72-12.16-94.72-35.2-23.68-24-37.12-61.44-37.12-104.32 0-43.52 13.44-80.32 38.72-105.28 22.08-21.44 54.4-33.28 91.84-33.28 41.28 0 73.6 14.08 94.4 41.92 10.24 13.12 15.68 24.96 19.84 43.84zM1219.52 1.92c78.72 0 128.96 53.76 128.96 137.6C1348.48 224 1296.96 280 1219.2 280c-78.4 0-128.96-54.72-128.96-139.52C1090.24 56 1140.8 1.92 1219.52 1.92z m0 222.72c38.72 0 62.4-32 62.4-84.48 0-51.84-23.68-83.2-62.4-83.2-39.04 0-63.04 31.68-63.04 83.2 0 52.16 24 84.48 63.04 84.48z m333.12 49.28h-55.68c-1.6-11.2-5.12-23.04-13.76-47.36l-29.44-85.12c-0.32-1.6-9.92-31.36-10.88-33.92-3.52-11.52-3.52-11.52-5.12-16 1.92 20.16 3.2 46.4 3.2 63.36v69.44c0 22.08 0.64 36.16 2.56 49.6h-63.04c1.92-14.4 2.56-27.84 2.56-49.6V57.6c0-19.2-0.96-36.16-2.56-49.92h84.48c2.24 13.76 4.8 24 12.16 45.12l48 137.92L1572.8 52.8c7.36-21.44 9.92-31.68 11.84-45.12h84.8c-1.92 15.36-2.56 28.48-2.56 49.92v166.72c0 24.32 0.64 36.8 2.56 49.6h-63.04c1.92-14.72 2.56-26.88 2.56-49.6v-69.76c0-7.68 0.96-31.68 1.6-41.6 0.96-16.96 0.96-16.96 1.28-21.76-7.04 24.96-10.24 36.48-14.4 48l-31.04 87.68c-8 22.72-12.16 36.8-13.76 47.04z m357.44-57.6v59.84c-13.76-1.6-25.28-2.24-52.8-2.24h-100.8c-24.32 0-33.28 0.32-47.04 0.96 1.92-12.8 2.56-24.64 2.56-46.72V53.44c0-19.84-0.64-31.04-2.56-46.72 13.12 0.64 22.08 0.96 47.04 0.96h102.08c21.76 0 32.64-0.64 47.68-2.24v59.84c-14.72-1.6-26.24-2.24-47.68-2.24h-83.2v47.04h69.12c21.12 0 28.8-0.32 48-2.24v59.2c-15.04-1.6-25.92-2.24-48-2.24h-69.12v53.76h82.56c24.32 0 38.4-0.64 52.16-2.24zM259.2 471.36H400c-4.48 28.16-5.12 47.36-5.12 103.04v266.88c0 52.48-14.08 92.8-44.16 122.88-32.64 33.28-84.48 51.84-147.2 51.84-69.76 0-122.24-19.84-158.08-59.52C26.88 936 17.92 920 3.2 881.6l124.8-42.88c13.44 49.92 32.64 67.84 73.6 67.84 42.88 0 62.72-21.12 62.72-65.28V575.04c0-54.4-1.28-74.24-5.12-103.68z m462.72-11.52c157.44 0 257.92 107.52 257.92 275.2C979.84 904 876.8 1016 721.28 1016c-156.8 0-257.92-109.44-257.92-279.04 0-168.96 101.12-277.12 258.56-277.12z m0 445.44c77.44 0 124.8-64 124.8-168.96 0-103.68-47.36-166.4-124.8-166.4-78.08 0-126.08 63.36-126.08 166.4 0 104.32 48 168.96 126.08 168.96z m321.92-433.92h140.8c-3.84 26.24-5.12 48-5.12 94.72v343.04c0 44.16 1.28 67.84 5.12 94.72h-140.8c3.84-24.96 5.12-51.84 5.12-94.72V566.08c0-48-1.28-66.56-5.12-94.72z m404.48 80l121.6 181.76c18.56 27.52 30.72 48 46.08 76.16-2.56-29.44-3.84-58.88-3.84-94.72V568.64c0-42.24-1.28-67.84-5.12-97.28h136.32c-3.84 28.8-5.12 55.68-5.12 97.28v339.84c0 39.04 1.92 68.48 5.12 95.36H1603.2c-11.52-24.32-26.24-48-48-81.28L1436.8 744c-17.28-25.6-28.16-44.8-46.08-78.72 3.2 28.8 4.48 64 4.48 95.36V904c0 44.16 1.28 72.32 5.12 99.84H1264c3.84-24.96 5.12-53.12 5.12-100.48V566.72c0-37.12-1.28-65.92-5.12-95.36h138.88c6.4 17.28 20.48 42.88 45.44 80z m939.52-80h138.24c-3.84 27.52-5.12 50.56-5.12 96.64v220.16c0 145.92-87.68 228.48-241.92 228.48-79.36 0-144-22.4-182.4-62.72-37.12-39.68-56.32-95.36-56.32-167.04V568c0-44.16-1.28-72.32-5.12-96.64h138.24c-3.84 23.68-5.12 49.28-5.12 96.64v220.16c0 80.64 36.48 119.04 111.36 119.04 76.8 0 113.28-38.4 113.28-119.04V568c0-48-1.28-67.84-5.12-96.64z m200.32 371.84l133.12-12.8c2.56 23.04 7.04 34.56 16.64 47.36 15.36 19.2 42.24 30.08 74.88 30.08 49.28 0 78.72-21.76 78.72-57.6 0-19.84-10.24-37.12-26.88-44.8-13.44-6.4-29.44-10.88-96-26.24-58.88-12.8-79.36-20.48-103.04-37.12-40.32-28.16-62.08-71.04-62.08-122.88 0-98.56 79.36-160.64 205.44-160.64 81.28 0 143.36 24.96 177.92 72.96 16 21.12 23.68 40.32 32 76.8l-135.68 14.72c-7.68-41.6-30.72-58.88-79.36-58.88-39.04 0-67.84 21.12-67.84 50.56 0 17.92 9.6 31.36 30.08 40.96 12.8 5.76 12.8 5.76 88.32 21.12 48.64 10.24 79.36 21.12 103.68 36.48 46.08 28.8 69.12 71.68 69.12 130.56 0 48-15.36 88.96-44.8 117.76-37.12 35.84-93.44 54.4-168.32 54.4-54.4 0-108.16-11.52-142.72-31.36-32-17.92-55.68-45.44-69.12-81.92-6.4-15.36-9.6-30.08-14.08-59.52z" fill="#8DCC00" p-id="3017"></path></svg>